<?xml version="1.0" encoding="utf-8"?>
<!-- Generator: Adobe Illustrator 16.2.0, SVG Export Plug-In . SVG Version: 6.00 Build 0)  -->
<!DOCTYPE svg PUBLIC "-//W3C//DTD SVG 1.1//EN" "http://www.w3.org/Graphics/SVG/1.1/DTD/svg11.dtd">
<svg version="1.1" id="Layer_7" xmlns="http://www.w3.org/2000/svg" xmlns:xlink="http://www.w3.org/1999/xlink" x="0px" y="0px"
	 width="500px" height="350px" viewBox="0 0 500 350" enable-background="new 0 0 500 350" xml:space="preserve">
<g>
	<path fill="#6E7173" d="M237.447,125.67h-47.081v88.063c0,0,13.734-18.331,27.06-42.272
		C231.531,146.119,237.447,125.67,237.447,125.67z"/>
	<path fill="#6E7173" d="M223.217,183.541h51.752l-27.396-40.133c0,0-4.958,9.404-10.127,18.357
		C232.277,170.719,223.217,183.541,223.217,183.541z"/>
	<path fill="#6E7173" d="M281.631,192.922H218.16c0,0-5.542,7.424-13.211,16.651c-7.67,9.227-14.583,16.791-14.583,16.791v41.248
		h141.944v-1.077L281.631,192.922z M257.859,262.588c-21.063,0-27.473-7.93-27.473-7.93h13.981c0,0,3.989,3.973,13.1,3.973
		c19.865,0,26.13-12.204,26.13-23.615c0-12.108-14.181-21.45-30.209-21.45c-21.111,0-30.517,4.762-30.517,4.762
		c0,9.53,0,39.835,0,39.835h-10.788v-36.426l-14.99,5.111l25.778-26.433v9.606c0,0,15.413-3.945,31.135-3.945
		c26.816,0,43.156,11.577,43.156,28.256C297.162,251.015,282.114,262.588,257.859,262.588z"/>
	<polygon fill="#6E7173" points="332.311,208.461 332.311,125.67 270.229,125.67 	"/>
</g>
</svg>
