<?xml version="1.0" encoding="utf-8"?>
<!-- Generator: Adobe Illustrator 16.2.0, SVG Export Plug-In . SVG Version: 6.00 Build 0)  -->
<!DOCTYPE svg PUBLIC "-//W3C//DTD SVG 1.1//EN" "http://www.w3.org/Graphics/SVG/1.1/DTD/svg11.dtd">
<svg version="1.1" id="Layer_7" xmlns="http://www.w3.org/2000/svg" xmlns:xlink="http://www.w3.org/1999/xlink" x="0px" y="0px"
	 width="500px" height="350px" viewBox="0 0 500 350" enable-background="new 0 0 500 350" xml:space="preserve">
<g>
	<g>
		<path fill="#333333" d="M210.174,176.998l-1.019-7.011h-7.73l-0.962,7.011h-4.617l6.475-42.09h6.115l6.473,42.09H210.174z
			 M202.021,165.668h6.535l-3.296-23.263L202.021,165.668z"/>
		<path fill="#333333" d="M239.868,162.847v14.151h-4.795v-13.971c0-2.514-1.136-3.658-3.657-3.658h-3.543v17.629h-4.792v-41.965
			h8.933c5.212,0,7.795,2.572,7.795,7.786v7.797c0,3.783-1.317,5.636-3.72,6.594C238.728,157.933,239.868,159.603,239.868,162.847z
			 M231.83,139.406h-3.958v15.71h3.603c2.396,0,3.534-1.143,3.534-3.536v-8.999C235.009,140.426,233.99,139.406,231.83,139.406z"/>
		<path fill="#333333" d="M265.187,160.867v8.697c0,5.216-2.577,7.791-7.794,7.791h-1.56c-5.214,0-7.794-2.575-7.794-7.791v-27.099
			c0-5.222,2.58-7.796,7.794-7.796h1.56c5.154,0,7.673,2.514,7.673,7.672v7.558h-4.677v-7.682c0-2.15-1.023-3.175-3.177-3.175
			h-1.195c-2.162,0-3.185,1.024-3.185,3.175v27.583c0,2.162,1.022,3.177,3.185,3.177h1.314c2.161,0,3.176-1.015,3.176-3.177v-8.934
			H265.187z"/>
		<path fill="#333333" d="M285.953,153.318v-18.285h4.792v41.965h-4.792v-19.188h-7.794v19.188h-4.801v-41.965h4.801v18.285H285.953
			z"/>
		<path fill="#333333" d="M303.715,176.998h-4.798v-41.965h4.798V176.998z"/>
		<path fill="#333333" d="M318.183,176.998V139.47h-6.299v-4.437h17.388v4.437h-6.296v37.528H318.183z"/>
		<path fill="#333333" d="M350.632,135.033v4.437h-8.393v13.901h8.093v4.382h-8.093v14.809h8.514v4.437H337.44v-41.965H350.632z"/>
		<path fill="#333333" d="M376.074,160.867v8.697c0,5.216-2.579,7.791-7.796,7.791h-1.56c-5.214,0-7.794-2.575-7.794-7.791v-27.099
			c0-5.222,2.58-7.796,7.794-7.796h1.56c5.154,0,7.675,2.514,7.675,7.672v7.558h-4.682v-7.682c0-2.15-1.016-3.175-3.174-3.175
			h-1.201c-2.161,0-3.176,1.024-3.176,3.175v27.583c0,2.162,1.015,3.177,3.176,3.177h1.319c2.159,0,3.18-1.015,3.18-3.177v-8.934
			H376.074z"/>
		<path fill="#333333" d="M390.545,176.998V139.47h-6.299v-4.437h17.388v4.437h-6.296v37.528H390.545z"/>
	</g>
	<g>
		<path fill="#333333" d="M195.846,190.424h4.695c3.735,0,5.514,1.777,5.514,5.514v13.875c0,3.736-1.778,5.518-5.514,5.518h-4.695
			V190.424z M198.691,212.729h1.707c1.922,0,2.812-0.961,2.812-2.879v-13.948c0-1.92-0.889-2.881-2.812-2.881h-1.707V212.729z"/>
		<path fill="#333333" d="M245.579,190.424v24.906h-2.775v-20.604l-3.415,20.604h-2.92l-3.413-20.604v20.604h-2.704v-24.906h4.482
			l3.167,19.637l3.166-19.637H245.579z"/>
		<path fill="#333333" d="M272.724,215.33h-2.849v-24.906h2.849V215.33z"/>
		<path fill="#333333" d="M300.756,215.33V193.06h-3.734v-2.636h10.316v2.636h-3.736v22.271H300.756z"/>
		<path fill="#333333" d="M341.595,206.932v8.398h-2.846v-8.291c0-1.493-0.674-2.172-2.167-2.172h-2.095v10.463h-2.852v-24.906
			h5.305c3.094,0,4.621,1.53,4.621,4.625v4.625c0,2.241-0.785,3.345-2.206,3.912C340.921,204.015,341.595,205.011,341.595,206.932z
			 M336.831,193.021h-2.344v9.325h2.13c1.423,0,2.102-0.682,2.102-2.102v-5.338C338.719,193.623,338.112,193.021,336.831,193.021z"
			/>
		<path fill="#333333" d="M368.738,215.33h-2.846v-24.906h2.846V215.33z"/>
		<path fill="#333333" d="M399.404,210.703c0,3.097-1.531,4.627-4.625,4.627h-1.743v-2.635h1.563c1.318,0,1.957-0.64,1.957-1.958
			v-20.313h2.848V210.703z"/>
	</g>
	<g>
		<path fill="#333333" d="M125.12,134.67H98.366v50.043c0,0,7.805-10.417,15.377-24.021C121.759,146.29,125.12,134.67,125.12,134.67
			z"/>
		<path fill="#333333" d="M117.034,167.556h29.409l-15.568-22.806c0,0-2.817,5.344-5.755,10.432S117.034,167.556,117.034,167.556z"
			/>
		<path fill="#333333" d="M150.228,172.887H114.16c0,0-3.149,4.219-7.507,9.462s-8.287,9.542-8.287,9.542v23.439h80.662v-0.612
			L150.228,172.887z M136.72,212.475c-11.969,0-15.612-4.506-15.612-4.506h7.945c0,0,2.267,2.258,7.444,2.258
			c11.289,0,14.848-6.936,14.848-13.42c0-6.881-8.058-12.189-17.167-12.189c-11.997,0-17.341,2.706-17.341,2.706
			c0,5.416,0,22.637,0,22.637h-6.13v-20.699l-8.518,2.904l14.648-15.021v5.459c0,0,8.758-2.242,17.692-2.242
			c15.239,0,24.524,6.579,24.524,16.057C159.054,205.898,150.503,212.475,136.72,212.475z"/>
		<polygon fill="#333333" points="179.028,181.717 179.028,134.67 143.749,134.67 		"/>
	</g>
</g>
</svg>
