<?xml version="1.0" encoding="utf-8"?>
<!-- Generator: Adobe Illustrator 16.2.0, SVG Export Plug-In . SVG Version: 6.00 Build 0)  -->
<!DOCTYPE svg PUBLIC "-//W3C//DTD SVG 1.1//EN" "http://www.w3.org/Graphics/SVG/1.1/DTD/svg11.dtd">
<svg version="1.1" id="Layer_1" xmlns="http://www.w3.org/2000/svg" xmlns:xlink="http://www.w3.org/1999/xlink" x="0px" y="0px"
	 width="20px" height="20px" viewBox="0 0 20 20" enable-background="new 0 0 20 20" xml:space="preserve">
<g>
	<path fill="#6E7173" d="M6.634,0H0v12.408c0,0,1.936-2.583,3.813-5.957C5.8,2.881,6.634,0,6.634,0z"/>
	<path fill="#6E7173" d="M4.628,8.154h7.292L8.061,2.5c0,0-0.698,1.325-1.427,2.586C5.905,6.347,4.628,8.154,4.628,8.154z"/>
	<path fill="#6E7173" d="M12.859,9.476H3.916c0,0-0.781,1.047-1.861,2.347S0,14.188,0,14.188V20h20v-0.152L12.859,9.476z
		 M9.51,19.292c-2.967,0-3.871-1.118-3.871-1.118h1.97c0,0,0.562,0.561,1.846,0.561c2.798,0,3.682-1.72,3.682-3.327
		c0-1.706-1.998-3.023-4.257-3.023c-2.975,0-4.299,0.672-4.299,0.672c0,1.343,0,5.613,0,5.613H3.06v-5.134l-2.112,0.721l3.632-3.724
		v1.353c0,0,2.172-0.556,4.387-0.556c3.779,0,6.081,1.631,6.081,3.981S12.928,19.292,9.51,19.292z"/>
	<polygon fill="#6E7173" points="20,11.665 20,0 11.253,0 	"/>
</g>
</svg>
