<?xml version="1.0" encoding="utf-8"?>
<!-- Generator: Adobe Illustrator 16.2.0, SVG Export Plug-In . SVG Version: 6.00 Build 0)  -->
<!DOCTYPE svg PUBLIC "-//W3C//DTD SVG 1.1//EN" "http://www.w3.org/Graphics/SVG/1.1/DTD/svg11.dtd">
<svg version="1.1" id="Layer_1" xmlns="http://www.w3.org/2000/svg" xmlns:xlink="http://www.w3.org/1999/xlink" x="0px" y="0px"
	 width="213px" height="56px" viewBox="0 0 213 56" enable-background="new 0 0 213 56" xml:space="preserve">
<g>
	<g>
		<path fill="#303438" d="M78.541,29.733l-0.716-4.924h-5.43l-0.676,4.924h-3.243l4.548-29.566h4.296l4.547,29.566H78.541z
			 M72.813,21.775h4.59L75.088,5.434L72.813,21.775z"/>
		<path fill="#303438" d="M99.399,19.793v9.94H96.03V19.92c0-1.766-0.798-2.57-2.569-2.57h-2.489v12.383h-3.366V0.255h6.274
			c3.662,0,5.476,1.807,5.476,5.469v5.477c0,2.657-0.925,3.958-2.613,4.632C98.598,16.341,99.399,17.514,99.399,19.793z
			 M93.752,3.327h-2.78v11.036h2.531c1.683,0,2.482-0.803,2.482-2.484V5.557C95.985,4.043,95.269,3.327,93.752,3.327z"/>
		<path fill="#303438" d="M117.184,18.402v6.109c0,3.664-1.811,5.473-5.475,5.473h-1.096c-3.663,0-5.475-1.809-5.475-5.473V5.476
			c0-3.668,1.812-5.476,5.475-5.476h1.096c3.621,0,5.39,1.766,5.39,5.389v5.309h-3.285V5.302c0-1.511-0.719-2.23-2.231-2.23h-0.84
			c-1.519,0-2.236,0.72-2.236,2.23v19.375c0,1.519,0.718,2.231,2.236,2.231h0.924c1.518,0,2.23-0.712,2.23-2.231v-6.275H117.184z"/>
		<path fill="#303438" d="M131.771,13.1V0.255h3.366v29.478h-3.366V16.255h-5.475v13.478h-3.373V0.255h3.373V13.1H131.771z"/>
		<path fill="#303438" d="M144.248,29.733h-3.37V0.255h3.37V29.733z"/>
		<path fill="#303438" d="M154.411,29.733V3.372h-4.425V0.255H162.2v3.116h-4.422v26.362H154.411z"/>
		<path fill="#303438" d="M177.205,0.255v3.116h-5.896v9.765h5.686v3.078h-5.686v10.402h5.98v3.116h-9.351V0.255H177.205z"/>
		<path fill="#303438" d="M195.077,18.402v6.109c0,3.664-1.812,5.473-5.476,5.473h-1.096c-3.663,0-5.475-1.809-5.475-5.473V5.476
			c0-3.668,1.812-5.476,5.475-5.476h1.096c3.62,0,5.391,1.766,5.391,5.389v5.309h-3.288V5.302c0-1.511-0.714-2.23-2.229-2.23h-0.844
			c-1.519,0-2.231,0.72-2.231,2.23v19.375c0,1.519,0.713,2.231,2.231,2.231h0.927c1.517,0,2.233-0.712,2.233-2.231v-6.275H195.077z"
			/>
		<path fill="#303438" d="M205.242,29.733V3.372h-4.424V0.255h12.214v3.116h-4.423v26.362H205.242z"/>
	</g>
	<g>
		<path fill="#303438" d="M68.475,39.165h3.298c2.624,0,3.873,1.248,3.873,3.873v9.746c0,2.625-1.25,3.876-3.873,3.876h-3.298
			V39.165z M70.474,54.833h1.199c1.351,0,1.975-0.676,1.975-2.022v-9.798c0-1.349-0.625-2.024-1.975-2.024h-1.199V54.833z"/>
		<path fill="#303438" d="M103.411,39.165V56.66h-1.95V42.187L99.062,56.66h-2.051l-2.397-14.474V56.66h-1.899V39.165h3.149
			l2.224,13.794l2.224-13.794H103.411z"/>
		<path fill="#303438" d="M122.479,56.66h-2.001V39.165h2.001V56.66z"/>
		<path fill="#303438" d="M142.17,56.66V41.016h-2.623v-1.851h7.246v1.851h-2.624V56.66H142.17z"/>
		<path fill="#303438" d="M170.857,50.761v5.899h-1.999v-5.824c0-1.049-0.474-1.525-1.522-1.525h-1.472v7.35h-2.003V39.165h3.727
			c2.173,0,3.246,1.074,3.246,3.248v3.249c0,1.574-0.552,2.35-1.55,2.748C170.384,48.712,170.857,49.411,170.857,50.761z
			 M167.511,40.988h-1.646v6.551h1.496c1,0,1.477-0.479,1.477-1.477v-3.749C168.837,41.412,168.411,40.988,167.511,40.988z"/>
		<path fill="#303438" d="M189.924,56.66h-1.998V39.165h1.998V56.66z"/>
		<path fill="#303438" d="M211.466,53.41c0,2.175-1.075,3.25-3.249,3.25h-1.225V54.81h1.099c0.926,0,1.375-0.449,1.375-1.376V39.165
			h2V53.41z"/>
	</g>
	<g>
		<path fill="#303438" d="M18.793,0H0v35.153c0,0,5.482-7.318,10.802-16.875C16.432,8.163,18.793,0,18.793,0z"/>
		<path fill="#303438" d="M13.113,23.101h20.658L22.836,7.081c0,0-1.979,3.753-4.042,7.328
			C16.73,17.982,13.113,23.101,13.113,23.101z"/>
		<path fill="#303438" d="M36.431,26.846H11.095c0,0-2.212,2.963-5.274,6.646C2.759,37.175,0,40.195,0,40.195V56.66h56.661v-0.43
			L36.431,26.846z M26.941,54.654c-8.407,0-10.966-3.165-10.966-3.165h5.581c0,0,1.593,1.586,5.229,1.586
			c7.93,0,10.43-4.872,10.43-9.427c0-4.834-5.661-8.563-12.059-8.563c-8.427,0-12.182,1.9-12.182,1.9c0,3.805,0,15.901,0,15.901
			H8.669v-14.54l-5.983,2.04l10.29-10.551v3.834c0,0,6.152-1.575,12.428-1.575c10.705,0,17.227,4.622,17.227,11.279
			C42.63,50.035,36.624,54.654,26.941,54.654z"/>
		<polygon fill="#303438" points="56.661,33.049 56.661,0 31.879,0 		"/>
	</g>
</g>
</svg>
